# xmcd
#
# Track frame offsets:
# 150
# 12042
# 22740
# 34102
# 43027
# 59325
# 74730
# 84517
# 97870
# 107325
# 119092
# 133977
# 147150
# 157327
#
# Disc length: 2297 seconds
#
#
# Revision: 0
# Processed by: cddbd v1.5.1PL2 Copyright (c) Steve Scherf et al.
# Submitted via: FreeRIP 2.944 
#
DISCID=be08f70e
DTITLE=Garcia e Zé Matão - Disco-2
DYEAR=1900
DGENRE=Sertanejo
TTITLE0=Corações amantes
TTITLE1=Recado à minha Família
TTITLE2=Crioula da pensão
TTITLE3=Saudação da viola
TTITLE4=O verdadeiro rei do gado
TTITLE5=Estória de dois irmãos
TTITLE6=Fim de baile
TTITLE7=Tarde triste
TTITLE8=Meu grito
TTITLE9=O trovador e saudade
TTITLE10=Dama de branco
TTITLE11=Mulher do palhaço
TTITLE12=Caboclo feliz
TTITLE13=Pagode do futebol
EXTD=
EXTT0=
EXTT1=
EXTT2=
EXTT3=
EXTT4=
EXTT5=
EXTT6=
EXTT7=
EXTT8=
EXTT9=
EXTT10=
EXTT11=
EXTT12=
EXTT13=
PLAYORDER=
